<svg version="1" xmlns="http://www.w3.org/2000/svg" width="682.667" height="682.667" viewBox="0 0 512.000000 512.000000"><path d="M230.4 71.5c-41.6 6.5-76.9 24.1-105.7 52.8C89.4 159.3 70 206 70 256c0 50.6 19.3 96.7 55.5 132.5 24.3 24.1 53.3 40.2 88 48.9 24.4 6.2 60.6 6.2 85 0 34.8-8.7 64.1-25 88.1-49 25.5-25.4 41.9-54.4 50.8-89.9 4.6-18.2 5.9-47.7 3.1-68C429.8 154.7 373.4 92.6 299 74.9c-20.8-4.9-49.7-6.4-68.6-3.4zm57.1 38.4c29 6.5 52.5 19.4 73.7 40.5 18.7 18.5 31.1 39.4 38.3 64.1 4.8 16.6 5.8 25.2 5.2 46-.4 17-.8 20.2-3.4 30.5-8.3 31.8-23.2 56.4-46.5 77-10.9 9.6-19.6 15.5-31.9 21.7-42.1 20.9-91 21-133.2.2-41.2-20.2-69.7-57.2-80.4-104.4-2.6-11.5-2.6-47.5 0-59 5.3-23.1 14.9-44.2 28.1-61.4 5.9-7.6 20-21.7 27.5-27.5 19-14.7 43.3-25.2 67.1-29.1 12.5-2.1 43.6-1.3 55.5 1.4z"/><path d="M244 145c-29.3 3.1-56 17.7-69.5 37.9-8.3 12.6-9.3 20-3.6 27.8 3.5 4.8 8.4 7.3 14.5 7.3 7.3 0 12-3 17.1-10.9 8.2-12.6 19.4-20 36.7-24.1 15.8-3.8 35.5-1.5 49.7 5.7 10.5 5.3 19.3 14 21.5 21.3 3.5 11.7 1.3 19.5-8.3 29.1-7.6 7.6-14.6 11.3-29.5 15.4-11.8 3.3-17 6.1-23.7 12.6-6.7 6.5-10.2 14.3-10.7 23.5-.5 9.5 1.8 14.2 9.1 18.4 6.4 3.6 10.3 3.8 16.7.5 5.3-2.7 10-9.1 10-13.7 0-3.4 1.1-4.1 10.8-6.6 17.8-4.7 30.7-11.6 42.5-23.1 8.3-7.9 13.5-15.3 17-24.1 13.1-33.1-2.6-67.6-39.3-86.4-17.4-8.9-40.1-12.8-61-10.6zM248 332.8c-9 5-12.6 16.1-8.1 25 2.5 4.8 10.7 10.2 15.7 10.2 6.2 0 14.2-4.8 16.9-10 2.2-4.2 1.9-13.8-.4-17.6-5.1-8.3-16.4-11.9-24.1-7.6z"/></svg>
